<svg width="19" height="15" viewBox="0 0 19 15" fill="none" xmlns="http://www.w3.org/2000/svg">
<path d="M18.1264 2.70108L6.93838 13.8891C6.84094 13.9869 6.72515 14.0645 6.59766 14.1174C6.47016 14.1704 6.33347 14.1976 6.19543 14.1976C6.05738 14.1976 5.92069 14.1704 5.7932 14.1174C5.6657 14.0645 5.54992 13.9869 5.45247 13.8891L0.557711 8.99435C0.460145 8.89678 0.382751 8.78095 0.329949 8.65348C0.277146 8.526 0.249969 8.38937 0.249969 8.25139C0.249969 8.11341 0.277147 7.97678 0.329949 7.84931C0.382751 7.72183 0.460145 7.606 0.557711 7.50844C0.655278 7.41087 0.771105 7.33348 0.898582 7.28067C1.02606 7.22787 1.16269 7.20069 1.30067 7.20069C1.43865 7.20069 1.57527 7.22787 1.70275 7.28067C1.83023 7.33348 1.94605 7.41087 2.04362 7.50844L6.1963 11.6611L16.6422 1.21692C16.8393 1.01988 17.1065 0.90918 17.3852 0.90918C17.6639 0.90918 17.9311 1.01988 18.1282 1.21692C18.3252 1.41397 18.4359 1.68121 18.4359 1.95988C18.4359 2.23854 18.3252 2.50579 18.1282 2.70283L18.1264 2.70108Z" fill="#FAFAFA"/>
</svg>
